<?xml version="1.0" encoding="utf-8"?>
<!-- Svg Vector Icons : http://www.onlinewebfonts.com/icon -->
<!DOCTYPE svg PUBLIC "-//W3C//DTD SVG 1.1//EN" "http://www.w3.org/Graphics/SVG/1.1/DTD/svg11.dtd">
<svg version="1.1" xmlns="http://www.w3.org/2000/svg" xmlns:xlink="http://www.w3.org/1999/xlink" x="0px" y="0px" viewBox="0 0 1000 1000" enable-background="new 0 0 1000 1000" xml:space="preserve">
<metadata> Svg Vector Icons : http://www.onlinewebfonts.com/icon </metadata>
<g><path d="M500,987c-130.9,0-254-50.6-346.5-142.6C60.9,752.4,10,630.1,10,500c0-130.1,51-252.4,143.6-344.4C246.1,63.7,369.2,13,500.1,13c131,0,254,50.6,346.6,142.6c191.1,189.9,191.1,498.8,0,688.7C754.1,936.3,631,987,500,987L500,987L500,987L500,987L500,987z M500.1,76.5c-113.9,0-220.9,44-301.4,124C118.2,280.5,73.9,386.8,73.9,500c0,113.2,44.3,219.5,124.8,299.5c80.5,79.9,187.5,124,301.4,124c113.9,0,221-44.1,301.5-124.1c166.2-165.1,166.2-433.8,0-598.9C721,120.5,614,76.5,500.1,76.5L500.1,76.5L500.1,76.5L500.1,76.5L500.1,76.5z M691,538.9H483.7V331.6c0-22.9-18.5-41.5-41.5-41.5c-22.9,0-41.5,18.5-41.5,41.5v248.8c0,22.9,18.5,41.5,41.5,41.5H691c22.9,0,41.5-18.5,41.5-41.5C732.5,557.5,713.9,538.9,691,538.9L691,538.9z"/></g>
</svg>