<svg width="16" height="16" viewBox="0 0 16 16" fill="none" xmlns="http://www.w3.org/2000/svg">
<path fill-rule="evenodd" clip-rule="evenodd" d="M15.3103 0.924331L13.4689 15.0345C13.4461 15.1481 13.3893 15.2277 13.2984 15.2731C13.2074 15.3299 13.1165 15.3299 13.0256 15.2731L8.33683 12.9384L6.64888 15.1879C6.59205 15.2674 6.51249 15.3072 6.41018 15.3072C6.36472 15.3072 6.33062 15.3015 6.30789 15.2901C6.17148 15.2561 6.10329 15.1595 6.10329 15.0004V11.933C6.10329 11.8535 6.12602 11.791 6.17149 11.7455L12.8721 3.12266L4.15959 10.6379C4.10276 10.6833 4.03456 10.706 3.95499 10.706C3.90953 10.706 3.86406 10.6947 3.81859 10.6719L0.749601 9.13823C0.635934 9.08143 0.579102 8.99622 0.579102 8.88261C0.579102 8.75764 0.630251 8.66108 0.732551 8.59291L14.8499 0.617588C14.9636 0.560783 15.0716 0.566464 15.1739 0.634629C15.2875 0.702795 15.333 0.799361 15.3103 0.924331Z" fill="white"/>
</svg>
