<svg width="17" height="17" viewBox="0 0 17 17" fill="none" xmlns="http://www.w3.org/2000/svg">
<path fill-rule="evenodd" clip-rule="evenodd" d="M16.5 8.00195L14.9828 9.31227L15.9483 11.0364L14.0172 11.6571L14.2931 13.7261L12.2931 13.5192L11.6724 15.4502L9.87932 14.4847L8.56897 16.0019L7.25862 14.4847L5.46553 15.4502L4.84484 13.5192L2.77588 13.6571L2.98277 11.6571L1.05173 11.1054L2.01724 9.31229L0.5 8.00194L2.01724 6.69159L1.05173 4.89849L2.98277 4.34678L2.84485 2.34678L4.84484 2.48471L5.39656 0.622642L7.18965 1.5192L8.5 0.00195312L9.74138 1.5192L11.5345 0.553687L12.1552 2.48472L14.2241 2.3468L14.0172 4.34679L15.9483 4.89851L14.9828 6.6916L16.5 8.00195ZM11.6725 12.0019L10.638 8.62261L13.1897 6.13986H10.1552L8.63798 3.72607L7.12074 6.13986H4.08626L6.63799 8.62261L5.60351 12.0019L8.63798 10.2088L11.6725 12.0019Z" fill="#0797F2"/>
</svg>
